<?xml version="1.0" standalone="no"?>
<!DOCTYPE svg PUBLIC "-//W3C//DTD SVG 20010904//EN"
 "http://www.w3.org/TR/2001/REC-SVG-20010904/DTD/svg10.dtd">
<svg version="1.0" xmlns="http://www.w3.org/2000/svg"
 width="512.000000pt" height="512.000000pt" viewBox="0 0 512.000000 512.000000"
 preserveAspectRatio="xMidYMid meet">

<g transform="translate(0.000000,512.000000) scale(0.100000,-0.100000)"
fill="#000000" stroke="none">
<path d="M2255 5105 c-316 -43 -538 -131 -755 -296 -261 -199 -429 -506 -495
-904 -10 -62 -19 -189 -22 -332 l-6 -233 302 0 301 0 0 150 c0 272 35 466 112
620 33 67 61 103 128 170 115 116 223 170 425 215 95 21 414 31 527 16 387
-52 612 -218 708 -526 39 -125 52 -224 57 -437 l6 -208 300 0 300 0 -6 238
c-8 302 -34 463 -107 661 -161 437 -516 736 -990 836 -212 45 -577 59 -785 30z"/>
<path d="M910 3150 c-81 -10 -167 -40 -238 -82 -77 -47 -175 -155 -218 -239
-66 -131 -64 -94 -64 -1250 0 -708 3 -1064 11 -1105 39 -213 219 -404 434
-459 52 -13 267 -15 1725 -15 1834 0 1714 -4 1850 62 99 48 209 162 259 269
22 46 44 111 50 143 8 41 11 397 11 1105 0 1158 2 1118 -66 1252 -49 98 -162
213 -254 258 -146 71 2 65 -1805 67 -896 1 -1659 -2 -1695 -6z m630 -1226
c297 -141 297 -555 0 -698 -59 -28 -74 -31 -160 -31 -86 0 -101 3 -162 32
-275 130 -304 501 -53 668 78 51 125 64 225 62 72 -2 95 -7 150 -33z m1180 0
c300 -142 300 -556 0 -698 -58 -28 -75 -31 -160 -31 -85 0 -102 3 -160 31
-243 115 -302 430 -115 617 83 84 167 117 285 114 71 -2 96 -7 150 -33z m1133
21 c62 -19 149 -77 187 -125 159 -200 93 -484 -138 -593 -61 -29 -76 -32 -162
-32 -86 0 -101 3 -160 31 -243 117 -299 429 -112 620 99 100 252 140 385 99z"/>
</g>
</svg>
